<mxfile host="app.diagrams.net" modified="2024-06-12T18:10:58.790Z" agent="Mozilla/5.0 (Windows NT 10.0; Win64; x64) AppleWebKit/537.36 (KHTML, like Gecko) Chrome/125.0.0.0 Safari/537.36 Edg/125.0.0.0" etag="nKh619wRhJZ0sQqHK9ux" version="24.5.4" type="github">
  <diagram name="PÃ¡gina-1" id="zNzb7YGpmJKHPsOs2Py7">
    <mxGraphModel dx="1426" dy="751" grid="1" gridSize="10" guides="1" tooltips="1" connect="1" arrows="1" fold="1" page="1" pageScale="1" pageWidth="827" pageHeight="1169" math="0" shadow="0">
      <root>
        <mxCell id="0" />
        <mxCell id="1" parent="0" />
        <mxCell id="VYMMDPcB0hkNtFmYqeaA-1" value="&lt;a target=&quot;_blank&quot; href=&quot;https://www.udemy.com/git-e-github-para-iniciantes/learn/lecture/5120486#overview&quot;&gt;Github para iniciantes&lt;/a&gt;" style="rounded=1;whiteSpace=wrap;html=1;" parent="1" vertex="1">
          <mxGeometry x="120" y="120" width="120" height="60" as="geometry" />
        </mxCell>
      </root>
    </mxGraphModel>
  </diagram>
</mxfile>
